# This file uses centimeters as units for non-parametric coordinates.

mtllib Key A.mtl
g default
v 0.000000 4.263652 -7.070845
v 0.000000 3.927402 -6.394883
v 0.000000 3.412621 -6.006680
v 0.000000 3.208262 -5.917405
v 0.000000 3.003902 -5.845549
v 0.000000 2.717798 -5.824958
v 0.000000 2.268207 -5.885559
v 0.000000 2.300762 -4.087193
v 0.000000 2.280276 -2.166213
v 0.000000 2.280419 -0.163488
v 0.000000 2.309079 2.901907
v 0.000000 3.249133 2.942779
v 0.000000 3.249133 5.844687
v 0.000000 2.472567 5.891455
v 0.000000 1.286730 5.926431
v 0.000000 1.272949 2.942779
v 0.000000 1.271536 -2.002725
v 0.000000 1.287281 -3.964578
v 0.000000 1.287281 -5.027248
v 0.000000 1.246409 -6.008174
v 0.000000 0.672302 -6.130790
v 0.000000 0.179356 -6.257308
v 0.000000 -0.198203 -6.519917
v 0.000000 -0.540402 -6.934804
v 0.000000 -0.674572 -7.561308
v 0.000000 -0.592828 -8.010900
v 0.000000 -0.265853 -8.548509
v 0.000000 0.224610 -8.952806
v 0.000000 0.715074 -9.153200
v 0.000000 1.409896 -9.277929
v 0.000000 2.145591 -9.318801
v 0.000000 2.840414 -9.277929
v 0.000000 3.290006 -9.032698
v 0.000000 3.624289 -8.832122
v 0.000000 3.924591 -8.429324
v 0.000000 4.157293 -7.970027
v 0.000000 4.258380 -7.783704
v 0.000000 4.332228 -7.438692
v 1.200802 4.263652 -7.070845
v 1.200802 3.927402 -6.394883
v 1.200802 3.412621 -6.006680
v 1.200802 3.208262 -5.917405
v 1.200802 3.003902 -5.845549
v 1.200802 2.717798 -5.824958
v 1.200802 2.268207 -5.885559
v 1.200802 2.300762 -4.087193
v 1.200802 2.280276 -2.166213
v 1.200802 2.280419 -0.163488
v 1.200802 2.309079 2.901907
v 1.200802 3.249133 2.942779
v 1.200802 3.249133 5.844687
v 1.200802 2.472567 5.891455
v 1.200802 1.286730 5.926431
v 1.200802 1.272949 2.942779
v 1.200802 1.271536 -2.002725
v 1.200802 1.287281 -3.964578
v 1.200802 1.287281 -5.027248
v 1.200802 1.246409 -6.008174
v 1.200802 0.672302 -6.130790
v 1.200802 0.179356 -6.257308
v 1.200802 -0.198203 -6.519917
v 1.200802 -0.540402 -6.934804
v 1.200802 -0.674572 -7.561308
v 1.200802 -0.592828 -8.010900
v 1.200802 -0.265853 -8.548509
v 1.200802 0.224610 -8.952806
v 1.200802 0.715074 -9.153200
v 1.200802 1.409896 -9.277929
v 1.200802 2.145591 -9.318801
v 1.200802 2.840414 -9.277929
v 1.200802 3.290006 -9.032698
v 1.200802 3.624289 -8.832122
v 1.200802 3.924591 -8.429324
v 1.200802 4.157293 -7.970027
v 1.200802 4.258380 -7.783704
v 1.200802 4.332228 -7.438692
v 0.000000 3.249133 5.016813
v 1.200802 3.249133 5.016813
v 0.000000 3.249133 3.881305
v 1.200802 3.249133 3.881305
v -0.000000 4.204226 2.942779
v -0.000000 4.204226 3.881305
v 1.200802 4.204226 3.881305
v 1.200802 4.204226 2.942779
v 0.000000 4.204226 5.016813
v 0.000000 4.204226 5.844687
v 1.200802 4.204226 5.844687
v 1.200802 4.204226 5.016813
v 0.553757 1.948762 6.885676
v 0.553757 1.856635 6.888393
v 0.647046 1.856635 6.888393
v 0.647046 1.948762 6.885676
v 0.000000 3.732326 3.881305
v 0.000000 3.732326 5.016813
v 1.200802 3.732326 5.016813
v 1.200802 3.732326 3.881305
vt 0.283359 0.130123
vt 0.264194 0.168652
vt 0.234852 0.190779
vt 0.223203 0.195868
vt 0.211555 0.199964
vt 0.195248 0.201137
vt 0.169621 0.197683
vt 0.171477 0.300188
vt 0.170309 0.409682
vt 0.170317 0.523835
vt 0.171951 0.698559
vt 0.225533 0.700889
vt 0.225533 0.754383
vt 0.225533 0.819106
vt 0.225533 0.866294
vt 0.181270 0.868960
vt 0.113678 0.870953
vt 0.112893 0.700889
vt 0.112812 0.419000
vt 0.113710 0.307177
vt 0.113710 0.246606
vt 0.111380 0.190694
vt 0.078657 0.183705
vt 0.050559 0.176494
vt 0.029039 0.161525
vt 0.009534 0.137877
vt 0.001886 0.102167
vt 0.006546 0.076541
vt 0.025183 0.045898
vt 0.053139 0.022853
vt 0.081095 0.011431
vt 0.120699 0.004322
vt 0.162632 0.001992
vt 0.202237 0.004322
vt 0.227863 0.018300
vt 0.246916 0.029732
vt 0.264033 0.052691
vt 0.277297 0.078871
vt 0.283059 0.089491
vt 0.287268 0.109156
vt 0.279972 0.700889
vt 0.279972 0.754383
vt 0.253075 0.754383
vt 0.253075 0.819106
vt 0.279972 0.819106
vt 0.279972 0.866294
vt 0.151413 0.925629
vt 0.146162 0.925784
vt 0.575134 0.797653
vt 0.579042 0.818620
vt 0.574833 0.838285
vt 0.569071 0.848905
vt 0.555808 0.875085
vt 0.538691 0.898044
vt 0.519637 0.909476
vt 0.494011 0.923454
vt 0.454407 0.925784
vt 0.412473 0.923454
vt 0.372869 0.916345
vt 0.344913 0.904923
vt 0.316957 0.881878
vt 0.298320 0.851235
vt 0.293660 0.825609
vt 0.301308 0.789899
vt 0.320813 0.766251
vt 0.342333 0.751282
vt 0.370431 0.744071
vt 0.403154 0.737082
vt 0.405484 0.681170
vt 0.405484 0.620599
vt 0.404586 0.508776
vt 0.404667 0.226888
vt 0.405452 0.056823
vt 0.473044 0.058816
vt 0.517307 0.061482
vt 0.517307 0.108670
vt 0.517307 0.173393
vt 0.517307 0.226888
vt 0.463725 0.229217
vt 0.462092 0.403941
vt 0.462084 0.518094
vt 0.463251 0.627588
vt 0.461396 0.730093
vt 0.487022 0.726639
vt 0.503329 0.727813
vt 0.514978 0.731908
vt 0.526626 0.736997
vt 0.555968 0.759124
vt 0.437936 0.001992
vt 0.443188 0.002147
vt 0.571746 0.061482
vt 0.571746 0.108670
vt 0.544849 0.108670
vt 0.544849 0.173393
vt 0.571746 0.173393
vt 0.571746 0.226888
vt 0.812247 0.062648
vt 0.812247 0.024119
vt 0.880692 0.024119
vt 0.880692 0.062648
vt 0.812247 0.001992
vt 0.880692 0.001992
vt 0.812247 0.083615
vt 0.880692 0.083615
vt 0.812247 0.103281
vt 0.880692 0.103281
vt 0.812247 0.113901
vt 0.880692 0.113901
vt 0.812247 0.140080
vt 0.880692 0.140080
vt 0.812247 0.163039
vt 0.880692 0.163039
vt 0.812247 0.174472
vt 0.880692 0.174472
vt 0.660916 0.502868
vt 0.660916 0.400363
vt 0.729360 0.400363
vt 0.729360 0.502868
vt 0.660916 0.290869
vt 0.729360 0.290869
vt 0.660916 0.176716
vt 0.729360 0.176716
vt 0.660916 0.001992
vt 0.729360 0.001992
vt 0.651233 0.809306
vt 0.597738 0.809306
vt 0.597738 0.740862
vt 0.651233 0.740862
vt 0.585250 0.682251
vt 0.585250 0.512186
vt 0.653695 0.512186
vt 0.653695 0.682251
vt 0.585250 0.230298
vt 0.653695 0.230298
vt 0.622131 0.737082
vt 0.616814 0.737082
vt 0.585250 0.118475
vt 0.653695 0.118475
vt 0.585250 0.057904
vt 0.653695 0.057904
vt 0.585250 0.001992
vt 0.653695 0.001992
vt 0.876591 0.293275
vt 0.876591 0.257565
vt 0.945035 0.257565
vt 0.945035 0.293275
vt 0.876591 0.231939
vt 0.945035 0.231939
vt 0.876591 0.316923
vt 0.945035 0.316923
vt 0.876591 0.201296
vt 0.945035 0.201296
vt 0.876591 0.331892
vt 0.945035 0.331892
vt 0.876591 0.178251
vt 0.945035 0.178251
vt 0.525298 0.998008
vt 0.478110 0.998008
vt 0.478110 0.929564
vt 0.525298 0.929564
vt 0.472301 0.998008
vt 0.407578 0.998008
vt 0.407578 0.929564
vt 0.472301 0.929564
vt 0.281271 0.929564
vt 0.281271 0.998008
vt 0.224601 0.966444
vt 0.224601 0.961127
vt 0.722273 0.809306
vt 0.710625 0.809306
vt 0.710625 0.740862
vt 0.722273 0.740862
vt 0.698977 0.809306
vt 0.698977 0.740862
vt 0.682669 0.809306
vt 0.682669 0.740862
vt 0.657043 0.809306
vt 0.657043 0.740862
vt 0.802337 0.288517
vt 0.802337 0.234935
vt 0.870781 0.234935
vt 0.870781 0.288517
vt 0.802337 0.180496
vt 0.870781 0.180496
vt 0.728083 0.550911
vt 0.728083 0.506647
vt 0.796527 0.506647
vt 0.796527 0.550911
vt 0.796527 0.605350
vt 0.728083 0.605350
vt 0.152089 0.934881
vt 0.146838 0.934881
vt 0.146838 0.929564
vt 0.152089 0.929564
vt 0.591929 0.998008
vt 0.559205 0.998008
vt 0.559205 0.929564
vt 0.591929 0.929564
vt 0.531108 0.998008
vt 0.531108 0.929564
vt 0.736582 0.176716
vt 0.736582 0.148760
vt 0.805026 0.148760
vt 0.805026 0.176716
vt 0.736582 0.109156
vt 0.805026 0.109156
vt 0.736582 0.067222
vt 0.805026 0.067222
vt 0.736582 0.027618
vt 0.805026 0.027618
vt 0.736582 0.001992
vt 0.805026 0.001992
vt 0.347329 0.998008
vt 0.347329 0.929564
vt 0.401768 0.929564
vt 0.401768 0.998008
vt 0.341520 0.929564
vt 0.341520 0.998008
vt 0.287080 0.998008
vt 0.287080 0.929564
vt 0.191250 0.998008
vt 0.191250 0.929564
vt 0.218791 0.929564
vt 0.218791 0.998008
vt 0.185440 0.929564
vt 0.185440 0.998008
vt 0.157899 0.998008
vt 0.157899 0.929564
vn 1.000000 -0.000000 0.000000
vn 1.000000 -0.000000 0.000000
vn 1.000000 -0.000000 0.000000
vn 1.000000 -0.000000 0.000000
vn 1.000000 -0.000000 0.000000
vn 1.000000 -0.000000 0.000000
vn 1.000000 -0.000000 0.000000
vn 1.000000 -0.000000 0.000000
vn 1.000000 -0.000000 0.000000
vn 1.000000 -0.000000 0.000000
vn 1.000000 -0.000000 0.000000
vn 1.000000 -0.000000 0.000000
vn 1.000000 -0.000000 0.000000
vn 1.000000 -0.000000 0.000000
vn 1.000000 -0.000000 0.000000
vn 0.999990 0.000130 0.004395
vn 0.999961 0.000261 0.008839
vn 1.000000 -0.000000 0.000000
vn 1.000000 -0.000000 0.000000
vn 1.000000 -0.000000 0.000000
vn 1.000000 -0.000000 0.000000
vn 1.000000 -0.000000 0.000000
vn 1.000000 -0.000000 0.000000
vn 1.000000 -0.000000 0.000000
vn 1.000000 -0.000000 0.000000
vn 1.000000 -0.000000 0.000000
vn 1.000000 -0.000000 0.000000
vn 1.000000 -0.000000 0.000000
vn 1.000000 -0.000000 0.000000
vn 1.000000 -0.000000 0.000000
vn 1.000000 -0.000000 0.000000
vn 1.000000 -0.000000 0.000000
vn 1.000000 -0.000000 0.000000
vn 1.000000 -0.000000 0.000000
vn 1.000000 -0.000000 0.000000
vn 1.000000 -0.000000 0.000000
vn 1.000000 -0.000000 0.000000
vn 1.000000 -0.000000 0.000000
vn 1.000000 -0.000000 0.000000
vn 1.000000 -0.000000 0.000000
vn -1.000000 0.000000 0.000000
vn -1.000000 0.000000 0.000000
vn -1.000000 0.000000 0.000000
vn -1.000000 0.000000 0.000000
vn -1.000000 0.000000 0.000000
vn -1.000000 0.000000 0.000000
vn -1.000000 0.000000 0.000000
vn -1.000000 0.000000 0.000000
vn -1.000000 0.000000 0.000000
vn -1.000000 0.000000 0.000000
vn -1.000000 0.000000 0.000000
vn -1.000000 0.000000 0.000000
vn -1.000000 0.000000 0.000000
vn -1.000000 0.000000 0.000000
vn -1.000000 0.000000 0.000000
vn -1.000000 0.000000 0.000000
vn -1.000000 0.000000 0.000000
vn -1.000000 0.000000 0.000000
vn -1.000000 0.000000 0.000000
vn -1.000000 0.000000 0.000000
vn -1.000000 0.000000 0.000000
vn -1.000000 0.000000 0.000000
vn -1.000000 0.000000 0.000000
vn -1.000000 0.000000 0.000000
vn -0.999961 0.000261 0.008839
vn -0.999990 0.000130 0.004395
vn -1.000000 0.000000 0.000000
vn -1.000000 0.000000 0.000000
vn -1.000000 -0.000000 0.000000
vn -1.000000 -0.000000 0.000000
vn -1.000000 0.000000 0.000000
vn -1.000000 0.000000 0.000000
vn -1.000000 0.000000 0.000000
vn -1.000000 0.000000 0.000000
vn -1.000000 0.000000 0.000000
vn -1.000000 0.000000 0.000000
vn -1.000000 0.000000 0.000000
vn -1.000000 0.000000 0.000000
vn -1.000000 0.000000 0.000000
vn -1.000000 0.000000 0.000000
vn 0.000000 0.895343 0.445378
vn 0.000000 0.895343 0.445378
vn 0.000000 0.895343 0.445378
vn 0.000000 0.895343 0.445378
vn 0.000000 0.602100 0.798421
vn 0.000000 0.553136 0.833091
vn 0.000000 0.553136 0.833091
vn 0.000000 0.602100 0.798421
vn 0.000000 0.366763 0.930315
vn 0.000000 0.366763 0.930315
vn 0.000000 0.185227 0.982696
vn 0.000000 0.185227 0.982696
vn 0.000000 -0.054304 0.998525
vn 0.000000 -0.054304 0.998525
vn 0.000000 -0.133582 0.991038
vn 0.000000 -0.133582 0.991038
vn 0.000000 0.999836 -0.018100
vn 0.000000 0.999995 -0.003245
vn 0.000000 0.999995 -0.003245
vn 0.000000 0.999836 -0.018100
vn 0.000000 0.999987 0.005185
vn 0.000000 0.999987 0.005185
vn 0.000000 0.999984 -0.005683
vn 0.000000 0.999984 -0.005683
vn 0.000000 0.999956 -0.009349
vn 0.000000 0.999956 -0.009349
vn 0.000000 0.043437 -0.999056
vn 0.000000 0.021562 -0.999768
vn 0.000000 0.021562 -0.999768
vn 0.000000 0.043437 -0.999056
vn 0.000000 1.000000 0.000000
vn 0.000000 1.000000 0.000000
vn 0.000000 1.000000 0.000000
vn 0.000000 1.000000 0.000000
vn 0.000000 0.026998 0.999636
vn 0.000000 0.060116 0.998191
vn 0.000000 0.060116 0.998191
vn 0.000000 0.026998 0.999636
vn 0.000000 0.029479 0.999565
vn 0.000000 0.029479 0.999565
vn 0.000000 0.029479 0.999565
vn 0.000000 0.029479 0.999565
vn 0.000000 -0.997632 0.068778
vn 0.000000 -0.999998 0.001916
vn 0.000000 -0.999998 0.001916
vn 0.000000 -0.997632 0.068778
vn 0.000000 -0.999998 -0.002075
vn 0.000000 -0.999998 -0.002075
vn 0.000000 -0.999986 -0.005206
vn 0.000000 -0.999986 -0.005206
vn 0.000000 -0.999800 0.019996
vn 0.000000 -0.999800 0.019996
vn 0.000000 -0.999133 0.041631
vn 0.000000 -0.999133 0.041631
vn 0.000000 -0.208866 0.977944
vn 0.000000 -0.208866 0.977944
vn 0.000000 -0.208866 0.977944
vn 0.000000 -0.208866 0.977944
vn 0.000000 -0.248599 0.968606
vn 0.000000 -0.408095 0.912940
vn 0.000000 -0.408095 0.912940
vn 0.000000 -0.248599 0.968606
vn 0.000000 -0.685406 0.728161
vn 0.000000 -0.685406 0.728161
vn 0.000000 -0.771449 0.636291
vn 0.000000 -0.771449 0.636291
vn 0.000000 -0.977828 0.209409
vn 0.000000 -0.998815 0.048661
vn 0.000000 -0.998815 0.048661
vn 0.000000 -0.977828 0.209409
vn 0.000000 -0.923943 -0.382530
vn 0.000000 -0.923943 -0.382530
vn 0.000000 -0.755244 -0.655443
vn 0.000000 -0.755244 -0.655443
vn 0.000000 -0.524755 -0.851254
vn 0.000000 -0.524755 -0.851254
vn 0.000000 -0.264529 -0.964378
vn 0.000000 -0.264529 -0.964378
vn 0.000000 -0.114995 -0.993366
vn 0.000000 -0.114995 -0.993366
vn 0.000000 0.000000 -1.000000
vn 0.000000 0.000000 -1.000000
vn 0.000000 0.242535 -0.970143
vn 0.000000 0.242535 -0.970143
vn 0.000000 0.494365 -0.869255
vn 0.000000 0.494365 -0.869255
vn 0.000000 0.689060 -0.724704
vn 0.000000 0.689060 -0.724704
vn 0.000000 0.850562 -0.525874
vn 0.000000 0.850562 -0.525874
vn 0.000000 0.892042 -0.451953
vn 0.000000 0.892042 -0.451953
vn 0.000000 0.878973 -0.476872
vn 0.000000 0.949844 -0.312723
vn 0.000000 0.949844 -0.312723
vn 0.000000 0.878973 -0.476872
vn 0.000000 0.999973 -0.007395
vn 0.000000 0.999973 -0.007395
vn 0.000000 0.983063 0.183269
vn 0.000000 0.983063 0.183269
vn 0.000000 1.000000 0.000000
vn 0.000000 1.000000 0.000000
vn 0.000000 1.000000 0.000000
vn 0.000000 1.000000 0.000000
vn 0.000000 1.000000 0.000000
vn 0.000000 1.000000 0.000000
vn 0.000000 1.000000 0.000000
vn 0.000000 1.000000 0.000000
vn -1.000000 -0.000000 0.000000
vn -1.000000 -0.000000 0.000000
vn 0.000000 0.000000 1.000000
vn 0.000000 0.000000 1.000000
vn 0.000000 0.000000 1.000000
vn 0.000000 0.000000 1.000000
vn 1.000000 0.000000 0.000000
vn 1.000000 0.000000 0.000000
vn 0.000000 0.000000 -1.000000
vn 0.000000 0.000000 -1.000000
vn -1.000000 0.000000 0.000000
vn -1.000000 0.000000 0.000000
vn 0.000000 0.000000 1.000000
vn 0.000000 0.000000 1.000000
vn 1.000000 0.000000 0.000000
vn 1.000000 0.000000 0.000000
vn 0.000000 0.000000 -1.000000
vn 0.000000 0.000000 -1.000000
vn 0.000000 0.000000 -1.000000
vn 0.000000 0.000000 -1.000000
vn -0.870266 0.014522 0.492368
vn -0.870266 0.014522 0.492368
vn 0.000000 -0.860349 0.509705
vn 0.000000 -0.860349 0.509705
vn 0.870266 0.014522 0.492368
vn 0.870266 0.014522 0.492368
vn 0.000000 0.884723 0.466116
vn 0.000000 0.884723 0.466116
vn 0.000000 0.884723 0.466116
vn 0.000000 0.884723 0.466116
vn -1.000000 0.000000 0.000000
vn -1.000000 0.000000 0.000000
vn 0.000000 0.000000 1.000000
vn 0.000000 0.000000 1.000000
vn 0.000000 0.000000 1.000000
vn 0.000000 0.000000 1.000000
vn 1.000000 0.000000 0.000000
vn 1.000000 0.000000 0.000000
vn 0.000000 0.000000 -1.000000
vn 0.000000 0.000000 -1.000000
vn 0.000000 0.000000 -1.000000
vn 0.000000 0.000000 -1.000000
s 1
g polySurface1
usemtl initialShadingGroup
f 39/1/1 40/2/2 41/3/3 42/4/4 43/5/5 44/6/6 45/7/7 46/8/8 47/9/9 48/10/10 49/11/11 50/12/12 80/13/13 78/14/14 51/15/15 52/16/16 53/17/17 54/18/18 55/19/19 56/20/20 57/21/21 58/22/22 59/23/23 60/24/24 61/25/25 62/26/26 63/27/27 64/28/28 65/29/29 66/30/30 67/31/31 68/32/32 69/33/33 70/34/34 71/35/35 72/36/36 73/37/37 74/38/38 75/39/39 76/40/40
s 2
f 1/49/41 38/50/42 37/51/43 36/52/44 35/53/45 34/54/46 33/55/47 32/56/48 31/57/49 30/58/50 29/59/51 28/60/52 27/61/53 26/62/54 25/63/55 24/64/56 23/65/57 22/66/58 21/67/59 20/68/60 19/69/61 18/70/62 17/71/63 16/72/64 15/73/65 14/74/66 13/75/67 77/76/68 79/77/69 12/78/70 11/79/71 10/80/72 9/81/73 8/82/74 7/83/75 6/84/76 5/85/77 4/86/78 3/87/79 2/88/80
s off
f 1/97/81 2/98/82 40/99/83 39/100/84
s 3
f 2/98/85 3/101/86 41/102/87 40/99/88
f 3/169/86 4/170/89 42/171/90 41/172/87
f 4/170/89 5/173/91 43/174/92 42/171/90
f 5/173/91 6/175/93 44/176/94 43/174/92
f 6/175/93 7/177/95 45/178/96 44/176/94
s 4
f 7/115/97 8/116/98 46/117/99 45/118/100
f 8/116/98 9/119/101 47/120/102 46/117/99
f 9/119/101 10/121/103 48/122/104 47/120/102
f 10/121/103 11/123/105 49/124/106 48/122/104
s 5
f 11/179/107 12/180/108 50/181/109 49/182/110
s off
f 81/125/111 82/126/112 83/127/113 84/128/114
s 6
f 13/185/115 14/186/116 52/187/117 51/188/118
s off
f 89/191/119 90/192/120 91/193/121 92/194/122
s 7
f 15/129/123 16/130/124 54/131/125 53/132/126
f 16/130/124 17/133/127 55/134/128 54/131/125
f 17/133/127 18/137/129 56/138/130 55/134/128
f 18/137/129 19/139/131 57/140/132 56/138/130
f 19/139/131 20/141/133 58/142/134 57/140/132
s off
f 20/195/135 21/196/136 59/197/137 58/198/138
s 8
f 21/196/139 22/199/140 60/200/141 59/197/142
f 22/153/140 23/149/143 61/150/144 60/154/141
f 23/149/143 24/143/145 62/146/146 61/150/144
s 9
f 24/143/147 25/144/148 63/145/149 62/146/150
f 25/144/148 26/147/151 64/148/152 63/145/149
f 26/147/151 27/151/153 65/152/154 64/148/152
f 27/151/153 28/155/155 66/156/156 65/152/154
f 28/201/155 29/202/157 67/203/158 66/204/156
f 29/202/157 30/205/159 68/206/160 67/203/158
f 30/205/159 31/207/161 69/208/162 68/206/160
f 31/207/161 32/209/163 70/210/164 69/208/162
f 32/209/163 33/211/165 71/212/166 70/210/164
f 33/113/165 34/111/167 72/112/168 71/114/166
f 34/111/167 35/109/169 73/110/170 72/112/168
f 35/109/169 36/107/171 74/108/172 73/110/170
s 10
f 36/107/173 37/105/174 75/106/175 74/108/176
f 37/105/174 38/103/177 76/104/178 75/106/175
f 38/103/177 1/97/179 39/100/180 76/104/178
s off
f 85/157/181 86/158/182 87/159/183 88/160/184
f 93/161/185 94/162/186 95/163/187 96/164/188
s 2
f 12/78/70 79/77/69 82/95/189 81/96/190
s off
f 79/213/191 80/214/192 83/215/193 82/216/194
s 1
f 80/13/13 50/12/12 84/41/195 83/42/196
s 5
f 50/181/109 12/180/108 81/183/197 84/184/198
s 2
f 77/76/68 13/75/67 86/91/199 85/92/200
s 6
f 13/185/115 51/188/118 87/189/201 86/190/202
s 1
f 51/15/15 78/14/14 88/45/203 87/46/204
s off
f 78/217/205 77/218/206 85/219/207 88/220/208
s 2
f 14/74/66 15/73/65 90/89/209 89/90/210
s 7
f 15/129/123 53/132/126 91/135/211 90/136/212
s 1
f 53/17/17 52/16/16 92/47/213 91/48/214
s off
f 52/165/215 14/166/216 89/167/217 92/168/218
s 2
f 79/77/69 77/76/68 94/93/219 93/94/220
s off
f 77/221/221 78/222/222 95/223/223 94/224/224
s 1
f 78/14/14 80/13/13 96/43/225 95/44/226
s off
f 80/225/227 79/226/228 93/227/229 96/228/230
